<?xml version="1.0" encoding="UTF-8"?>
<!DOCTYPE svg PUBLIC "-//W3C//DTD SVG 1.1//EN" "http://www.w3.org/Graphics/SVG/1.1/DTD/svg11.dtd">
<svg xmlns="http://www.w3.org/2000/svg" version="1.1" width="50px" height="50px" style="shape-rendering:geometricPrecision; text-rendering:geometricPrecision; image-rendering:optimizeQuality; fill-rule:evenodd; clip-rule:evenodd" xmlns:xlink="http://www.w3.org/1999/xlink">
<g><path style="opacity:1" fill="#fefffe" d="M 22.5,9.5 C 23.1667,8.16667 23.8333,8.16667 24.5,9.5C 23.8333,9.5 23.1667,9.5 22.5,9.5 Z"/></g>
<g><path style="opacity:1" fill="#fefffe" d="M 20.5,10.5 C 20.8417,9.66175 21.5084,9.32842 22.5,9.5C 22.1583,10.3382 21.4916,10.6716 20.5,10.5 Z"/></g>
<g><path style="opacity:1" fill="#fefffe" d="M 24.5,9.5 C 25.4916,9.32842 26.1583,9.66175 26.5,10.5C 25.5084,10.6716 24.8417,10.3382 24.5,9.5 Z"/></g>
<g><path style="opacity:1" fill="#fefffe" d="M 20.5,10.5 C 19.8333,11.1667 19.8333,11.1667 20.5,10.5 Z"/></g>
<g><path style="opacity:1" fill="#fefffe" d="M 26.5,10.5 C 27.1667,10.5 27.5,10.8333 27.5,11.5C 27.1667,11.1667 26.8333,10.8333 26.5,10.5 Z"/></g>
<g><path style="opacity:1" fill="#fefffe" d="M 17.5,12.5 C 17.8417,11.6618 18.5084,11.3284 19.5,11.5C 19.1583,12.3382 18.4916,12.6716 17.5,12.5 Z"/></g>
<g><path style="opacity:1" fill="#fefffe" d="M 27.5,11.5 C 28.4916,11.3284 29.1583,11.6618 29.5,12.5C 28.5084,12.6716 27.8417,12.3382 27.5,11.5 Z"/></g>
<g><path style="opacity:1" fill="#fefffe" d="M 15.5,13.5 C 15.8417,12.6618 16.5084,12.3284 17.5,12.5C 17.1583,13.3382 16.4916,13.6716 15.5,13.5 Z"/></g>
<g><path style="opacity:1" fill="#fefffe" d="M 29.5,12.5 C 30.4916,12.3284 31.1583,12.6618 31.5,13.5C 30.5084,13.6716 29.8417,13.3382 29.5,12.5 Z"/></g>
<g><path style="opacity:1" fill="#fefffe" d="M 15.5,13.5 C 14.8333,14.1667 14.8333,14.1667 15.5,13.5 Z"/></g>
<g><path style="opacity:1" fill="#fefffe" d="M 31.5,13.5 C 32.1667,13.5 32.5,13.8333 32.5,14.5C 32.1667,14.1667 31.8333,13.8333 31.5,13.5 Z"/></g>
<g><path style="opacity:1" fill="#fefffe" d="M 12.5,15.5 C 12.8417,14.6618 13.5084,14.3284 14.5,14.5C 14.1583,15.3382 13.4916,15.6716 12.5,15.5 Z"/></g>
<g><path style="opacity:1" fill="#fefffe" d="M 32.5,14.5 C 33.4916,14.3284 34.1583,14.6618 34.5,15.5C 33.5084,15.6716 32.8417,15.3382 32.5,14.5 Z"/></g>
<g><path style="opacity:1" fill="#fefffe" d="M 10.5,16.5 C 10.8417,15.6618 11.5084,15.3284 12.5,15.5C 12.1583,16.3382 11.4916,16.6716 10.5,16.5 Z"/></g>
<g><path style="opacity:1" fill="#fefffe" d="M 34.5,15.5 C 35.4916,15.3284 36.1583,15.6618 36.5,16.5C 35.5084,16.6716 34.8417,16.3382 34.5,15.5 Z"/></g>
<g><path style="opacity:1" fill="#fefffe" d="M 10.5,16.5 C 10.0679,17.7095 9.40128,18.7095 8.5,19.5C 8.28519,17.8212 8.95186,16.8212 10.5,16.5 Z"/></g>
<g><path style="opacity:1" fill="#fefffe" d="M 16.5,17.5 C 15.8333,16.1667 15.8333,16.1667 16.5,17.5 Z"/></g>
<g><path style="opacity:1" fill="#fefffe" d="M 29.5,16.5 C 30.8333,17.1667 30.8333,17.1667 29.5,16.5 Z"/></g>
<g><path style="opacity:1" fill="#fefffe" d="M 36.5,16.5 C 38.0481,16.8212 38.7148,17.8212 38.5,19.5C 37.5987,18.7095 36.9321,17.7095 36.5,16.5 Z"/></g>
<g><path style="opacity:1" fill="#fefffe" d="M 16.5,17.5 C 18.1042,18.287 18.7709,19.6203 18.5,21.5C 17.7611,21.631 17.0944,21.4643 16.5,21C 17.1712,20.0138 17.1712,18.8471 16.5,17.5 Z"/></g>
<g><path style="opacity:1" fill="#fefffe" d="M 29.5,17.5 C 28.8333,18.1667 28.8333,18.1667 29.5,17.5 Z"/></g>
<g><path style="opacity:1" fill="#fefffe" d="M 28.5,18.5 C 28.5,18.8333 28.5,19.1667 28.5,19.5C 27.8299,19.0187 27.8299,18.6853 28.5,18.5 Z"/></g>
<g><path style="opacity:1" fill="#fefffe" d="M 8.5,19.5 C 8.5,19.8333 8.5,20.1667 8.5,20.5C 7.82986,20.0187 7.82986,19.6853 8.5,19.5 Z"/></g>
<g><path style="opacity:1" fill="#fefffe" d="M 28.5,19.5 C 29.2891,19.7828 29.9558,20.2828 30.5,21C 29.184,21.5281 28.5173,21.0281 28.5,19.5 Z"/></g>
<g><path style="opacity:1" fill="#fefffe" d="M 38.5,19.5 C 39.8333,20.1667 39.8333,20.1667 38.5,19.5 Z"/></g>
<g><path style="opacity:1" fill="#fefffe" d="M 8.5,20.5 C 9.83333,21.1667 9.83333,21.1667 8.5,20.5 Z"/></g>
<g><path style="opacity:1" fill="#fefffe" d="M 38.5,20.5 C 38.5,20.8333 38.5,21.1667 38.5,21.5C 37.8299,21.0187 37.8299,20.6853 38.5,20.5 Z"/></g>
<g><path style="opacity:1" fill="#fefffe" d="M 8.5,21.5 C 8.5,21.8333 8.5,22.1667 8.5,22.5C 7.82986,22.0187 7.82986,21.6853 8.5,21.5 Z"/></g>
<g><path style="opacity:1" fill="#fefffe" d="M 18.5,21.5 C 21.8531,21.3453 22.1864,22.0119 19.5,23.5C 19.1667,22.8333 18.8333,22.1667 18.5,21.5 Z"/></g>
<g><path style="opacity:1" fill="#fefffe" d="M 38.5,21.5 C 39.8333,22.1667 39.8333,22.1667 38.5,21.5 Z"/></g>
<g><path style="opacity:1" fill="#fefffe" d="M 8.5,22.5 C 9.83333,23.1667 9.83333,23.1667 8.5,22.5 Z"/></g>
<g><path style="opacity:1" fill="#fefffe" d="M 38.5,22.5 C 37.8333,23.1667 37.8333,23.1667 38.5,22.5 Z"/></g>
<g><path style="opacity:1" fill="#fefffe" d="M 8.5,23.5 C 8.5,23.8333 8.5,24.1667 8.5,24.5C 7.82986,24.0187 7.82986,23.6853 8.5,23.5 Z"/></g>
<g><path style="opacity:1" fill="#fefffe" d="M 19.5,23.5 C 20.463,24.3635 20.463,25.0302 19.5,25.5C 18.2267,24.7435 18.2267,24.0768 19.5,23.5 Z"/></g>
<g><path style="opacity:1" fill="#fefffe" d="M 8.5,24.5 C 9.16667,24.5 9.5,24.8333 9.5,25.5C 9.16667,25.1667 8.83333,24.8333 8.5,24.5 Z"/></g>
<g><path style="opacity:1" fill="#fefffe" d="M 38.5,26.5 C 37.7109,26.2172 37.0442,25.7172 36.5,25C 37.816,24.4719 38.4827,24.9719 38.5,26.5 Z"/></g>
<g><path style="opacity:1" fill="#fefffe" d="M 9.5,25.5 C 10.1667,25.5 10.5,25.8333 10.5,26.5C 10.1667,26.1667 9.83333,25.8333 9.5,25.5 Z"/></g>
<g><path style="opacity:1" fill="#fefffe" d="M 10.5,26.5 C 11.3635,25.537 12.0302,25.537 12.5,26.5C 11.7435,27.7733 11.0768,27.7733 10.5,26.5 Z"/></g>
<g><path style="opacity:1" fill="#fefffe" d="M 8.5,27.5 C 7.83333,26.1667 7.83333,26.1667 8.5,27.5 Z"/></g>
<g><path style="opacity:1" fill="#fefffe" d="M 18.5,28.5 C 16.9719,28.4827 16.4719,27.816 17,26.5C 17.7172,27.0442 18.2172,27.7109 18.5,28.5 Z"/></g>
<g><path style="opacity:1" fill="#fefffe" d="M 38.5,26.5 C 39.8333,27.1667 39.8333,27.1667 38.5,26.5 Z"/></g>
<g><path style="opacity:1" fill="#fefffe" d="M 8.5,27.5 C 9.33825,27.8417 9.67158,28.5084 9.5,29.5C 8.66175,29.1583 8.32842,28.4916 8.5,27.5 Z"/></g>
<g><path style="opacity:1" fill="#fefffe" d="M 38.5,27.5 C 38.6716,28.4916 38.3382,29.1583 37.5,29.5C 37.3284,28.5084 37.6618,27.8417 38.5,27.5 Z"/></g>
<g><path style="opacity:1" fill="#fefffe" d="M 18.5,28.5 C 19.5,28.8333 20.1667,29.5 20.5,30.5C 19.1667,30.5 18.5,29.8333 18.5,28.5 Z"/></g>
<g><path style="opacity:1" fill="#fefffe" d="M 9.5,29.5 C 10.404,30.209 10.7373,31.209 10.5,32.5C 9.59603,31.791 9.26269,30.791 9.5,29.5 Z"/></g>
<g><path style="opacity:1" fill="#fefffe" d="M 37.5,29.5 C 37.7373,30.791 37.404,31.791 36.5,32.5C 36.2627,31.209 36.596,30.209 37.5,29.5 Z"/></g>
<g><path style="opacity:1" fill="#fefffe" d="M 20.5,30.5 C 21.2891,30.7828 21.9558,31.2828 22.5,32C 21.184,32.5281 20.5173,32.0281 20.5,30.5 Z"/></g>
<g><path style="opacity:1" fill="#fefffe" d="M 28.5,33.5 C 28.5173,31.9719 29.184,31.4719 30.5,32C 29.9558,32.7172 29.2891,33.2172 28.5,33.5 Z"/></g>
<g><path style="opacity:1" fill="#fefffe" d="M 10.5,32.5 C 11.3382,32.8417 11.6716,33.5084 11.5,34.5C 10.6618,34.1583 10.3284,33.4916 10.5,32.5 Z"/></g>
<g><path style="opacity:1" fill="#fefffe" d="M 36.5,32.5 C 36.6716,33.4916 36.3382,34.1583 35.5,34.5C 35.3284,33.5084 35.6618,32.8417 36.5,32.5 Z"/></g>
<g><path style="opacity:1" fill="#fefffe" d="M 28.5,33.5 C 28.1667,34.5 27.5,35.1667 26.5,35.5C 26.5,34.1667 27.1667,33.5 28.5,33.5 Z"/></g>
<g><path style="opacity:1" fill="#fefffe" d="M 11.5,34.5 C 12.3382,34.8417 12.6716,35.5084 12.5,36.5C 11.6618,36.1583 11.3284,35.4916 11.5,34.5 Z"/></g>
<g><path style="opacity:1" fill="#fefffe" d="M 21.5,34.5 C 22.7733,35.0768 22.7733,35.7435 21.5,36.5C 20.537,36.0302 20.537,35.3635 21.5,34.5 Z"/></g>
<g><path style="opacity:1" fill="#fefffe" d="M 35.5,34.5 C 35.6716,35.4916 35.3382,36.1583 34.5,36.5C 34.3284,35.5084 34.6618,34.8417 35.5,34.5 Z"/></g>
<g><path style="opacity:1" fill="#fefffe" d="M 26.5,35.5 C 26.2172,36.2891 25.7172,36.9558 25,37.5C 24.4719,36.184 24.9719,35.5173 26.5,35.5 Z"/></g>
<g><path style="opacity:1" fill="#fefffe" d="M 12.5,36.5 C 13.1667,36.5 13.5,36.8333 13.5,37.5C 13.1667,37.1667 12.8333,36.8333 12.5,36.5 Z"/></g>
<g><path style="opacity:1" fill="#fefffe" d="M 34.5,36.5 C 33.8333,37.1667 33.8333,37.1667 34.5,36.5 Z"/></g>
<g><path style="opacity:1" fill="#fefffe" d="M 13.5,37.5 C 14.1667,37.5 14.5,37.8333 14.5,38.5C 14.1667,38.1667 13.8333,37.8333 13.5,37.5 Z"/></g>
<g><path style="opacity:1" fill="#fefffe" d="M 33.5,37.5 C 32.8333,38.1667 32.8333,38.1667 33.5,37.5 Z"/></g>
<g><path style="opacity:1" fill="#fefffe" d="M 14.5,38.5 C 15.1667,38.5 15.5,38.8333 15.5,39.5C 15.1667,39.1667 14.8333,38.8333 14.5,38.5 Z"/></g>
<g><path style="opacity:1" fill="#fefffe" d="M 32.5,38.5 C 31.8333,39.1667 31.8333,39.1667 32.5,38.5 Z"/></g>
<g><path style="opacity:1" fill="#fefffe" d="M 15.5,39.5 C 17.0269,39.427 18.0269,40.0937 18.5,41.5C 16.9731,41.573 15.9731,40.9063 15.5,39.5 Z"/></g>
<g><path style="opacity:1" fill="#fefffe" d="M 31.5,39.5 C 31.0269,40.9063 30.0269,41.573 28.5,41.5C 28.9731,40.0937 29.9731,39.427 31.5,39.5 Z"/></g>
<g><path style="opacity:1" fill="#fefffe" d="M 18.5,41.5 C 19.4916,41.3284 20.1583,41.6618 20.5,42.5C 19.5084,42.6716 18.8417,42.3382 18.5,41.5 Z"/></g>
<g><path style="opacity:1" fill="#fefffe" d="M 26.5,42.5 C 26.8417,41.6618 27.5084,41.3284 28.5,41.5C 28.1583,42.3382 27.4916,42.6716 26.5,42.5 Z"/></g>
<g><path style="opacity:1" fill="#fefffe" d="M 20.5,42.5 C 21.4916,42.3284 22.1583,42.6618 22.5,43.5C 21.5084,43.6716 20.8417,43.3382 20.5,42.5 Z"/></g>
<g><path style="opacity:1" fill="#fefffe" d="M 24.5,43.5 C 24.8417,42.6618 25.5084,42.3284 26.5,42.5C 26.1583,43.3382 25.4916,43.6716 24.5,43.5 Z"/></g>
<g><path style="opacity:1" fill="#fefffe" d="M 22.5,43.5 C 23.1667,43.5 23.8333,43.5 24.5,43.5C 23.8333,44.8333 23.1667,44.8333 22.5,43.5 Z"/></g>
</svg>
