<?xml version="1.0" encoding="UTF-8"?>
<!DOCTYPE svg PUBLIC "-//W3C//DTD SVG 1.1//EN" "http://www.w3.org/Graphics/SVG/1.1/DTD/svg11.dtd">
<svg xmlns="http://www.w3.org/2000/svg" version="1.1" width="16px" height="16px" style="shape-rendering:geometricPrecision; text-rendering:geometricPrecision; image-rendering:optimizeQuality; fill-rule:evenodd; clip-rule:evenodd" xmlns:xlink="http://www.w3.org/1999/xlink">
<g><path style="opacity:1" fill="#fefffe" d="M -0.5,1.5 C 4.83333,1.5 10.1667,1.5 15.5,1.5C 15.5,5.5 15.5,9.5 15.5,13.5C 10.1667,13.5 4.83333,13.5 -0.5,13.5C -0.5,9.5 -0.5,5.5 -0.5,1.5 Z M 1.5,3.5 C 5.5,2.16667 9.5,2.16667 13.5,3.5C 12.8333,3.5 12.5,3.83333 12.5,4.5C 11.8333,4.5 11.5,4.83333 11.5,5.5C 10.8333,5.5 10.5,5.83333 10.5,6.5C 9.83333,6.5 9.5,6.83333 9.5,7.5C 8.83333,7.5 8.5,7.83333 8.5,8.5C 7.83333,8.5 7.16667,8.5 6.5,8.5C 6.5,7.83333 6.16667,7.5 5.5,7.5C 5.5,6.83333 5.16667,6.5 4.5,6.5C 4.5,5.83333 4.16667,5.5 3.5,5.5C 3.5,4.83333 3.16667,4.5 2.5,4.5C 2.5,3.83333 2.16667,3.5 1.5,3.5 Z M 1.5,3.5 C 2.16667,3.5 2.5,3.83333 2.5,4.5C 3.16667,4.5 3.5,4.83333 3.5,5.5C 4.16667,5.5 4.5,5.83333 4.5,6.5C 5.16667,6.5 5.5,6.83333 5.5,7.5C 6.16667,7.5 6.5,7.83333 6.5,8.5C 7.16667,9.83333 7.83333,9.83333 8.5,8.5C 9.16667,8.5 9.5,8.16667 9.5,7.5C 10.1667,7.5 10.5,7.16667 10.5,6.5C 11.1667,6.5 11.5,6.16667 11.5,5.5C 12.1667,5.5 12.5,5.16667 12.5,4.5C 13.1667,4.5 13.5,4.16667 13.5,3.5C 14.4767,6.2869 14.81,9.2869 14.5,12.5C 9.83333,12.5 5.16667,12.5 0.5,12.5C 0.189998,9.2869 0.523331,6.2869 1.5,3.5 Z"/></g>
</svg>
